<svg xmlns="http://www.w3.org/2000/svg" height="350" width="600">
  <defs>
    <radialGradient id="grad1" cx="50%" cy="50%" r="50%" fx="50%" fy="50%">
      <stop offset="0%" style="stop-color:rgb(255,255,255);stop-opacity:0" />
      <stop offset="100%" style="stop-color:rgb(0,0,255);stop-opacity:1" />
    </radialGradient>
    <radialGradient id="grad2" cx="50%" cy="50%" r="50%" fx="50%" fy="50%">
      <stop offset="0%" style="stop-color:rgb(255,255,255);stop-opacity:0" />
      <stop offset="100%" style="stop-color:rgb(0,155,155);stop-opacity:1" />
    </radialGradient>
    <radialGradient id="grad3" cx="50%" cy="50%" r="50%" fx="50%" fy="50%">
      <stop offset="0%" style="stop-color:rgb(255,255,255);stop-opacity:0" />
      <stop offset="100%" style="stop-color:rgb(155,155,0);stop-opacity:1" />
    </radialGradient>
  </defs>
  <g>
    <path d="M 90 270 L 90 70 L 290 270 L 290 170 V 70" fill="transparent" stroke="gray"/>
    <line x1="290" y1="170" x2="490" y2="170" stroke="black" stroke-dasharray="5,10" />
    <line x1="490" y1="170" x2="490" y2="70" stroke="black" />
  </g>
  <g transform="translate(50,50)">
    <ellipse cx="40" cy="20" rx="72" ry="36" fill="url(#grad2)" />
    <text x="10" y="25">accumulator</text>
  </g>
  <g transform="translate(50,150)">
    <ellipse cx="40" cy="20" rx="72" ry="36" fill="url(#grad1)" />
    <text x="10" y="25">storage</text>
  </g>
  <g transform="translate(50,250)">
    <ellipse cx="40" cy="20" rx="72" ry="36" fill="url(#grad1)" />
    <text x="10" y="25">thresshold</text>
  </g>
  <g transform="translate(250,50)">
    <ellipse cx="40" cy="20" rx="72" ry="36" fill="url(#grad3)" />
    <text x="10" y="25">DerivedA</text>
  </g>
  <g transform="translate(250,150)">
    <ellipse cx="40" cy="20" rx="72" ry="36" fill="url(#grad3)" />
    <text x="10" y="25">ClassA</text>
  </g>
  <g transform="translate(450,50)">
    <ellipse cx="40" cy="20" rx="72" ry="36" fill="url(#grad1)" />
    <text x="20" y="25">student</text>
  </g>
  <g transform="translate(450,150)">
    <ellipse cx="40" cy="20" rx="72" ry="36" fill="url(#grad1)" />
    <text x="20" y="25">person</text>
  </g>
  <g transform="translate(250,250)">
    <ellipse cx="40" cy="20" rx="72" ry="36" fill="url(#grad1)" />
    <text x="20" y="25">logger</text>
  </g>
</svg>